<svg width="3300" height="2200" viewBox="0 0 3300 2200" fill="none" xmlns="http://www.w3.org/2000/svg">
<g id="cloud.rain.fill 1" clip-path="url(#clip0_1_2)">
<g id="Notes">
<path id="artboard" d="M3300 0H0V2200H3300V0Z" fill="white"/>
<path id="Vector" d="M263 292H3036" stroke="black" stroke-width="0.5"/>
<text id="Weight/Scale Variations" fill="black" xml:space="preserve" style="white-space: pre" font-family="Inter" font-size="13" font-weight="bold" letter-spacing="0em"><tspan x="263" y="321.727">Weight/Scale Variations</tspan></text>
<text id="Ultralight" fill="black" xml:space="preserve" style="white-space: pre" font-family="Inter" font-size="13" letter-spacing="0em"><tspan x="531.211" y="321.727">Ultralight</tspan></text>
<text id="Thin" fill="black" xml:space="preserve" style="white-space: pre" font-family="Inter" font-size="13" letter-spacing="0em"><tspan x="842.922" y="321.727">Thin</tspan></text>
<text id="Light" fill="black" xml:space="preserve" style="white-space: pre" font-family="Inter" font-size="13" letter-spacing="0em"><tspan x="1137.63" y="321.727">Light</tspan></text>
<text id="Regular" fill="black" xml:space="preserve" style="white-space: pre" font-family="Inter" font-size="13" letter-spacing="0em"><tspan x="1426.34" y="321.727">Regular</tspan></text>
<text id="Medium" fill="black" xml:space="preserve" style="white-space: pre" font-family="Inter" font-size="13" letter-spacing="0em"><tspan x="1721.56" y="321.727">Medium</tspan></text>
<text id="Semibold" fill="black" xml:space="preserve" style="white-space: pre" font-family="Inter" font-size="13" letter-spacing="0em"><tspan x="2014.27" y="321.727">Semibold</tspan></text>
<text id="Bold" fill="black" xml:space="preserve" style="white-space: pre" font-family="Inter" font-size="13" letter-spacing="0em"><tspan x="2325.98" y="321.727">Bold</tspan></text>
<text id="Heavy" fill="black" xml:space="preserve" style="white-space: pre" font-family="Inter" font-size="13" letter-spacing="0em"><tspan x="2617.19" y="321.727">Heavy</tspan></text>
<text id="Black" fill="black" xml:space="preserve" style="white-space: pre" font-family="Inter" font-size="13" letter-spacing="0em"><tspan x="2916.4" y="321.727">Black</tspan></text>
<path id="Vector_2" d="M263 1903H3036" stroke="black" stroke-width="0.5"/>
<g id="Group">
<path id="Vector_3" d="M272.248 1933.83C276.555 1933.83 280.139 1930.26 280.139 1925.95C280.139 1921.64 276.545 1918.07 272.238 1918.07C267.941 1918.07 264.367 1921.64 264.367 1925.95C264.367 1930.26 267.951 1933.83 272.248 1933.83ZM272.248 1932.35C268.703 1932.35 265.871 1929.5 265.871 1925.95C265.871 1922.39 268.693 1919.55 272.238 1919.55C275.793 1919.55 278.644 1922.39 278.644 1925.95C278.644 1929.5 275.803 1932.35 272.248 1932.35ZM268.654 1925.95C268.654 1926.38 268.957 1926.67 269.406 1926.67H271.506V1928.79C271.506 1929.23 271.799 1929.53 272.229 1929.53C272.678 1929.53 272.971 1929.23 272.971 1928.79V1926.67H275.09C275.529 1926.67 275.832 1926.38 275.832 1925.95C275.832 1925.51 275.529 1925.21 275.09 1925.21H272.971V1923.1C272.971 1922.65 272.678 1922.35 272.229 1922.35C271.799 1922.35 271.506 1922.65 271.506 1923.1V1925.21H269.406C268.957 1925.21 268.654 1925.51 268.654 1925.95Z" fill="black"/>
</g>
<g id="Group_2">
<path id="Vector_4" d="M293.576 1935.91C299.025 1935.91 303.537 1931.39 303.537 1925.95C303.537 1920.5 299.015 1915.99 293.566 1915.99C288.127 1915.99 283.615 1920.5 283.615 1925.95C283.615 1931.39 288.136 1935.91 293.576 1935.91ZM293.576 1934.25C288.967 1934.25 285.285 1930.56 285.285 1925.95C285.285 1921.34 288.957 1917.65 293.566 1917.65C298.176 1917.65 301.877 1921.34 301.877 1925.95C301.877 1930.56 298.185 1934.25 293.576 1934.25ZM289.045 1925.95C289.045 1926.43 289.377 1926.75 289.875 1926.75H292.746V1929.63C292.746 1930.12 293.078 1930.46 293.556 1930.46C294.045 1930.46 294.386 1930.13 294.386 1929.63V1926.75H297.267C297.756 1926.75 298.097 1926.43 298.097 1925.95C298.097 1925.46 297.756 1925.12 297.267 1925.12H294.386V1922.25C294.386 1921.75 294.045 1921.41 293.556 1921.41C293.078 1921.41 292.746 1921.75 292.746 1922.25V1925.12H289.875C289.377 1925.12 289.045 1925.46 289.045 1925.95Z" fill="black"/>
</g>
<g id="Group_3">
<path id="Vector_5" d="M320.617 1938.66C327.58 1938.66 333.341 1932.9 333.341 1925.95C333.341 1918.99 327.57 1913.22 320.607 1913.22C313.654 1913.22 307.902 1918.99 307.902 1925.95C307.902 1932.9 313.664 1938.66 320.617 1938.66ZM320.617 1936.85C314.582 1936.85 309.728 1931.98 309.728 1925.95C309.728 1919.9 314.572 1915.05 320.607 1915.05C326.652 1915.05 331.515 1919.9 331.515 1925.95C331.515 1931.98 326.662 1936.85 320.617 1936.85ZM314.845 1925.95C314.845 1926.47 315.216 1926.83 315.763 1926.83H319.708V1930.78C319.708 1931.32 320.08 1931.7 320.597 1931.7C321.134 1931.7 321.505 1931.33 321.505 1930.78V1926.83H325.46C325.998 1926.83 326.378 1926.47 326.378 1925.95C326.378 1925.4 326.007 1925.03 325.46 1925.03H321.505V1921.09C321.505 1920.54 321.134 1920.16 320.597 1920.16C320.08 1920.16 319.708 1920.54 319.708 1921.09V1925.03H315.763C315.216 1925.03 314.845 1925.4 314.845 1925.95Z" fill="black"/>
</g>
<text id="Design Variations" fill="black" xml:space="preserve" style="white-space: pre" font-family="Inter" font-size="13" font-weight="bold" letter-spacing="0em"><tspan x="263" y="1952.73">Design Variations</tspan></text>
<text id="Symbols are supported in up to nine weights and three scales." fill="black" xml:space="preserve" style="white-space: pre" font-family="Inter" font-size="13" letter-spacing="0em"><tspan x="263" y="1970.73">Symbols are supported in up to nine weights and three scales.</tspan></text>
<text id="For optimal layout with text and other symbols, vertically align" fill="black" xml:space="preserve" style="white-space: pre" font-family="Inter" font-size="13" letter-spacing="0em"><tspan x="263" y="1988.73">For optimal layout with text and other symbols, vertically align</tspan></text>
<text id="symbols with the adjacent text." fill="black" xml:space="preserve" style="white-space: pre" font-family="Inter" font-size="13" letter-spacing="0em"><tspan x="263" y="2006.73">symbols with the adjacent text.</tspan></text>
<path id="Vector_6" d="M776 1919V1933" stroke="#00AEEF" stroke-width="0.5"/>
<g id="Group_4">
<path id="Vector_7" d="M779.311 1933.16C779.828 1933.16 780.082 1932.96 780.268 1932.41L781.527 1928.97H787.289L788.549 1932.41C788.734 1932.96 788.988 1933.16 789.496 1933.16C790.014 1933.16 790.346 1932.84 790.346 1932.36C790.346 1932.19 790.316 1932.03 790.238 1931.83L785.658 1919.63C785.434 1919.04 785.033 1918.73 784.408 1918.73C783.803 1918.73 783.393 1919.03 783.178 1919.62L778.598 1931.84C778.52 1932.04 778.49 1932.2 778.49 1932.37C778.49 1932.85 778.803 1933.16 779.311 1933.16ZM782.006 1927.48L784.379 1920.91H784.428L786.801 1927.48H782.006Z" fill="black"/>
</g>
<path id="Vector_8" d="M793.197 1919V1933" stroke="#00AEEF" stroke-width="0.5"/>
<text id="Margins" fill="black" xml:space="preserve" style="white-space: pre" font-family="Inter" font-size="13" font-weight="bold" letter-spacing="0em"><tspan x="776" y="1952.73">Margins</tspan></text>
<text id="Leading and trailing margins on the left and right side of each symbol" fill="black" xml:space="preserve" style="white-space: pre" font-family="Inter" font-size="13" letter-spacing="0em"><tspan x="776" y="1970.73">Leading and trailing margins on the left and right side of each symbol</tspan></text>
<text id="can be adjusted by modifying the x-location of the margin guidelines." fill="black" xml:space="preserve" style="white-space: pre" font-family="Inter" font-size="13" letter-spacing="0em"><tspan x="776" y="1988.73">can be adjusted by modifying the x-location of the margin guidelines.</tspan></text>
<text id="Modifications are automatically applied proportionally to all" fill="black" xml:space="preserve" style="white-space: pre" font-family="Inter" font-size="13" letter-spacing="0em"><tspan x="776" y="2006.73">Modifications are automatically applied proportionally to all</tspan></text>
<text id="scales and weights." fill="black" xml:space="preserve" style="white-space: pre" font-family="Inter" font-size="13" letter-spacing="0em"><tspan x="776" y="2024.73">scales and weights.</tspan></text>
<g id="Group_5">
<path id="Vector_9" d="M1291.84 1934.87L1293.54 1936.57C1294.4 1937.44 1295.39 1937.38 1296.31 1936.36L1307.01 1924.57L1306.04 1923.6L1295.43 1935.28C1295.07 1935.68 1294.74 1935.77 1294.27 1935.3L1293.1 1934.14C1292.63 1933.68 1292.74 1933.34 1293.14 1932.98L1304.62 1922.18L1303.64 1921.21L1292.05 1932.1C1291.06 1933.02 1290.98 1934 1291.84 1934.87ZM1298.26 1916.67C1297.84 1917.08 1297.81 1917.66 1298.04 1918.05C1298.28 1918.41 1298.74 1918.64 1299.38 1918.48C1300.85 1918.14 1302.37 1918.08 1303.79 1919.02L1303.21 1920.47C1302.87 1921.3 1303.04 1921.89 1303.58 1922.43L1305.88 1924.75C1306.36 1925.24 1306.77 1925.26 1307.34 1925.16L1308.4 1924.96L1309.07 1925.64L1309.03 1926.19C1308.99 1926.69 1309.12 1927.07 1309.61 1927.55L1310.37 1928.29C1310.85 1928.77 1311.46 1928.8 1311.93 1928.33L1314.84 1925.41C1315.31 1924.94 1315.29 1924.35 1314.81 1923.87L1314.04 1923.11C1313.56 1922.63 1313.19 1922.47 1312.71 1922.51L1312.13 1922.56L1311.49 1921.93L1311.73 1920.8C1311.86 1920.24 1311.71 1919.8 1311.12 1919.21L1308.92 1917.02C1305.58 1913.7 1301.15 1913.78 1298.26 1916.67ZM1299.75 1917.04C1302.18 1915.27 1305.47 1915.57 1307.7 1917.79L1310.13 1920.21C1310.37 1920.44 1310.41 1920.63 1310.34 1920.97L1310.02 1922.45L1311.52 1923.94L1312.51 1923.88C1312.76 1923.87 1312.84 1923.89 1313.03 1924.08L1313.61 1924.66L1311.17 1927.1L1310.59 1926.53C1310.4 1926.33 1310.37 1926.25 1310.38 1925.99L1310.45 1925.01L1308.95 1923.53L1307.43 1923.78C1307.11 1923.85 1306.96 1923.82 1306.71 1923.59L1304.71 1921.58C1304.46 1921.35 1304.43 1921.18 1304.59 1920.81L1305.46 1918.72C1303.9 1917.27 1301.87 1916.64 1299.84 1917.24C1299.68 1917.28 1299.63 1917.15 1299.75 1917.04Z" fill="black"/>
</g>
<text id="Exporting" fill="black" xml:space="preserve" style="white-space: pre" font-family="Inter" font-size="13" font-weight="bold" letter-spacing="0em"><tspan x="1289" y="1952.73">Exporting</tspan></text>
<text id="Symbols should be outlined when exporting to ensure the" fill="black" xml:space="preserve" style="white-space: pre" font-family="Inter" font-size="13" letter-spacing="0em"><tspan x="1289" y="1970.73">Symbols should be outlined when exporting to ensure the</tspan></text>
<text id="design is preserved when submitting to Xcode." fill="black" xml:space="preserve" style="white-space: pre" font-family="Inter" font-size="13" letter-spacing="0em"><tspan x="1289" y="1988.73">design is preserved when submitting to Xcode.</tspan></text>
<text id="template-version" fill="black" xml:space="preserve" style="white-space: pre" font-family="Inter" font-size="13" letter-spacing="0em"><tspan x="2945" y="1932.73">Template v.4.0</tspan></text>
<text id="Requires Xcode 14 or greater" fill="black" xml:space="preserve" style="white-space: pre" font-family="Inter" font-size="13" letter-spacing="0em"><tspan x="2857" y="1950.73">Requires Xcode 14 or greater</tspan></text>
<text id="descriptive-name" fill="black" xml:space="preserve" style="white-space: pre" font-family="Inter" font-size="13" letter-spacing="0em"><tspan x="2857" y="1968.73">Generated from cloud.rain.fill</tspan></text>
<text id="Typeset at 100 points" fill="black" xml:space="preserve" style="white-space: pre" font-family="Inter" font-size="13" letter-spacing="0em"><tspan x="2903" y="1986.73">Typeset at 100 points</tspan></text>
<text id="Small" fill="black" xml:space="preserve" style="white-space: pre" font-family="Inter" font-size="13" letter-spacing="0em"><tspan x="263" y="725.727">Small</tspan></text>
<text id="Medium_2" fill="black" xml:space="preserve" style="white-space: pre" font-family="Inter" font-size="13" letter-spacing="0em"><tspan x="263" y="1155.73">Medium</tspan></text>
<text id="Large" fill="black" xml:space="preserve" style="white-space: pre" font-family="Inter" font-size="13" letter-spacing="0em"><tspan x="263" y="1585.73">Large</tspan></text>
</g>
<g id="Guides">
<g id="H-reference">
<path id="Vector_10" d="M339.994 696H342.638L368.328 628.868H369.03V625.541H367.123L339.994 696ZM350.688 671.52H385.981L385.231 669.272H351.438L350.688 671.52ZM394.12 696H396.764L369.638 625.541H368.433V628.868L394.12 696Z" fill="#27AAE1"/>
</g>
<path id="Baseline-S" d="M263 696H3036" stroke="#27AAE1" stroke-width="0.5"/>
<path id="Capline-S" d="M263 625.541H3036" stroke="#27AAE1" stroke-width="0.5"/>
<g id="H-reference_2">
<path id="Vector_11" d="M339.994 1126H342.638L368.328 1058.87H369.03V1055.54H367.123L339.994 1126ZM350.688 1101.52H385.981L385.231 1099.27H351.438L350.688 1101.52ZM394.12 1126H396.764L369.638 1055.54H368.433V1058.87L394.12 1126Z" fill="#27AAE1"/>
</g>
<path id="Baseline-M" d="M263 1126H3036" stroke="#27AAE1" stroke-width="0.5"/>
<path id="Capline-M" d="M263 1055.54H3036" stroke="#27AAE1" stroke-width="0.5"/>
<g id="H-reference_3">
<path id="Vector_12" d="M339.994 1556H342.638L368.328 1488.87H369.03V1485.54H367.123L339.994 1556ZM350.688 1531.52H385.981L385.231 1529.27H351.438L350.688 1531.52ZM394.12 1556H396.764L369.638 1485.54H368.433V1488.87L394.12 1556Z" fill="#27AAE1"/>
</g>
<path id="Baseline-L" d="M263 1556H3036" stroke="#27AAE1" stroke-width="0.5"/>
<path id="Capline-L" d="M263 1485.54H3036" stroke="#27AAE1" stroke-width="0.5"/>
<path id="left-margin-Ultralight-S" d="M512.046 600.785V720.121" stroke="#00AEEF" stroke-width="0.5"/>
<path id="right-margin-Ultralight-S" d="M607.376 600.785V720.121" stroke="#00AEEF" stroke-width="0.5"/>
<path id="left-margin-Regular-S" d="M1401.09 600.785V720.121" stroke="#00AEEF" stroke-width="0.5"/>
<path id="right-margin-Regular-S" d="M1498.6 600.785V720.121" stroke="#00AEEF" stroke-width="0.5"/>
<path id="left-margin-Black-S" d="M2881.11 600.785V720.121" stroke="#00AEEF" stroke-width="0.5"/>
<path id="right-margin-Black-S" d="M2985.69 600.785V720.121" stroke="#00AEEF" stroke-width="0.5"/>
</g>
<g id="Symbols">
<g id="Black-S">
<g id="Sad_alt_2">
<path id="Ellipse 87 (Stroke)" fill-rule="evenodd" clip-rule="evenodd" d="M2923 696C2923 702.075 2918.08 707 2912 707C2905.92 707 2901 702.075 2901 696C2901 689.925 2905.92 685 2912 685C2918.08 685 2923 689.925 2923 696ZM2912 705C2916.97 705 2921 700.971 2921 696C2921 691.029 2916.97 687 2912 687C2907.03 687 2903 691.029 2903 696C2903 700.971 2907.03 705 2912 705Z" fill="#33363F"/>
<path id="Ellipse 90 (Stroke)" fill-rule="evenodd" clip-rule="evenodd" d="M2907.35 700.484C2907.46 701.024 2908 701.367 2908.54 701.25C2908.89 701.174 2909.39 701.111 2910 701.067C2910.61 701.023 2911.3 701 2912 701C2912.7 701 2913.39 701.023 2914 701.067C2914.61 701.111 2915.11 701.174 2915.46 701.25C2916 701.367 2916.54 701.024 2916.65 700.484C2916.77 699.944 2916.43 699.412 2915.89 699.295C2915.4 699.19 2914.79 699.119 2914.14 699.072C2913.48 699.024 2912.74 699 2912 699C2911.26 699 2910.52 699.024 2909.86 699.072C2909.21 699.119 2908.6 699.19 2908.11 699.295C2907.57 699.412 2907.23 699.944 2907.35 700.484Z" fill="#33363F"/>
<path id="Ellipse 88" d="M2909.5 694C2909.74 694 2909.86 694 2909.93 694.122C2910.01 694.245 2909.96 694.323 2909.88 694.479C2909.83 694.562 2909.78 694.639 2909.71 694.707C2909.52 694.895 2909.27 695 2909 695C2908.73 695 2908.48 694.895 2908.29 694.707C2908.22 694.639 2908.17 694.562 2908.12 694.479C2908.04 694.323 2907.99 694.245 2908.07 694.122C2908.14 694 2908.26 694 2908.5 694L2909 694H2909.5Z" fill="#33363F"/>
<path id="Ellipse 88 (Stroke)" fill-rule="evenodd" clip-rule="evenodd" d="M2910.32 694.719C2910.25 694.844 2910.16 694.959 2910.06 695.061C2909.78 695.342 2909.4 695.5 2909 695.5C2908.6 695.5 2908.22 695.342 2907.94 695.061C2907.84 694.959 2907.75 694.844 2907.68 694.719C2907.68 694.715 2907.68 694.71 2907.68 694.704C2907.64 694.643 2907.58 694.525 2907.55 694.398C2907.5 694.204 2907.54 694.025 2907.64 693.867C2907.75 693.67 2907.93 693.568 2908.11 693.527C2908.24 693.499 2908.38 693.5 2908.48 693.5C2908.48 693.5 2908.49 693.5 2908.5 693.5L2909.5 693.5C2909.51 693.5 2909.52 693.5 2909.52 693.5C2909.62 693.5 2909.76 693.499 2909.89 693.527C2910.07 693.568 2910.25 693.67 2910.36 693.867C2910.46 694.025 2910.5 694.204 2910.45 694.398C2910.42 694.525 2910.36 694.643 2910.32 694.704C2910.32 694.71 2910.32 694.715 2910.32 694.719ZM2909.93 694.122C2909.86 694 2909.74 694 2909.5 694L2908.5 694C2908.26 694 2908.14 694 2908.07 694.122C2907.99 694.245 2908.04 694.323 2908.12 694.479C2908.17 694.562 2908.22 694.639 2908.29 694.707C2908.48 694.895 2908.73 695 2909 695C2909.27 695 2909.52 694.895 2909.71 694.707C2909.78 694.639 2909.83 694.562 2909.88 694.479C2909.96 694.323 2910.01 694.245 2909.93 694.122Z" fill="#33363F"/>
<path id="Ellipse 89" d="M2915.5 694C2915.74 694 2915.86 694 2915.93 694.122C2916.01 694.245 2915.96 694.323 2915.88 694.479C2915.83 694.562 2915.78 694.639 2915.71 694.707C2915.52 694.895 2915.27 695 2915 695C2914.73 695 2914.48 694.895 2914.29 694.707C2914.22 694.639 2914.17 694.562 2914.12 694.479C2914.04 694.323 2913.99 694.245 2914.07 694.122C2914.14 694 2914.26 694 2914.5 694L2915 694H2915.5Z" fill="#33363F"/>
<path id="Ellipse 89 (Stroke)" fill-rule="evenodd" clip-rule="evenodd" d="M2916.32 694.719C2916.25 694.844 2916.16 694.959 2916.06 695.061C2915.78 695.342 2915.4 695.5 2915 695.5C2914.6 695.5 2914.22 695.342 2913.94 695.061C2913.84 694.959 2913.75 694.844 2913.68 694.719C2913.68 694.715 2913.68 694.71 2913.68 694.704C2913.64 694.643 2913.58 694.525 2913.55 694.398C2913.5 694.204 2913.54 694.025 2913.64 693.867C2913.75 693.67 2913.93 693.568 2914.11 693.527C2914.24 693.499 2914.38 693.5 2914.48 693.5C2914.48 693.5 2914.49 693.5 2914.5 693.5L2915.5 693.5C2915.51 693.5 2915.52 693.5 2915.52 693.5C2915.62 693.5 2915.76 693.499 2915.89 693.527C2916.07 693.568 2916.25 693.67 2916.36 693.867C2916.46 694.025 2916.5 694.204 2916.45 694.398C2916.42 694.525 2916.36 694.643 2916.32 694.704C2916.32 694.71 2916.32 694.715 2916.32 694.719ZM2915.93 694.122C2915.86 694 2915.74 694 2915.5 694L2914.5 694C2914.26 694 2914.14 694 2914.07 694.122C2913.99 694.245 2914.04 694.323 2914.12 694.479C2914.17 694.562 2914.22 694.639 2914.29 694.707C2914.48 694.895 2914.73 695 2915 695C2915.27 695 2915.52 694.895 2915.71 694.707C2915.78 694.639 2915.83 694.562 2915.88 694.479C2915.96 694.323 2916.01 694.245 2915.93 694.122Z" fill="#33363F"/>
</g>
<path id="Vector_13" d="M2909.28 678.324H2957.92C2971.98 678.324 2982.77 667.582 2982.77 653.812C2982.77 639.994 2972.27 629.057 2958.26 629.057C2953.96 620.853 2946 613.773 2931.65 613.773C2915.63 613.773 2903.57 625.004 2901.23 639.457C2893.66 642.24 2887.95 648.881 2887.95 658.012C2887.95 669.535 2896.69 678.324 2909.28 678.324Z" fill="black"/>
</g>
<g id="Regular-S">
<g id="Sad_alt_2_2">
<path id="Ellipse 87 (Stroke)_2" fill-rule="evenodd" clip-rule="evenodd" d="M1443 696C1443 702.075 1438.08 707 1432 707C1425.92 707 1421 702.075 1421 696C1421 689.925 1425.92 685 1432 685C1438.08 685 1443 689.925 1443 696ZM1432 705C1436.97 705 1441 700.971 1441 696C1441 691.029 1436.97 687 1432 687C1427.03 687 1423 691.029 1423 696C1423 700.971 1427.03 705 1432 705Z" fill="#33363F"/>
<path id="Ellipse 90 (Stroke)_2" fill-rule="evenodd" clip-rule="evenodd" d="M1427.35 700.484C1427.46 701.024 1428 701.367 1428.54 701.25C1428.89 701.174 1429.39 701.111 1430 701.067C1430.61 701.023 1431.3 701 1432 701C1432.7 701 1433.39 701.023 1434 701.067C1434.61 701.111 1435.11 701.174 1435.46 701.25C1436 701.367 1436.54 701.024 1436.65 700.484C1436.77 699.944 1436.43 699.412 1435.89 699.295C1435.4 699.19 1434.79 699.119 1434.14 699.072C1433.48 699.024 1432.74 699 1432 699C1431.26 699 1430.52 699.024 1429.86 699.072C1429.21 699.119 1428.6 699.19 1428.11 699.295C1427.57 699.412 1427.23 699.944 1427.35 700.484Z" fill="#33363F"/>
<path id="Ellipse 88_2" d="M1429.5 694C1429.74 694 1429.86 694 1429.93 694.122C1430.01 694.245 1429.96 694.323 1429.88 694.479C1429.83 694.562 1429.78 694.639 1429.71 694.707C1429.52 694.895 1429.27 695 1429 695C1428.73 695 1428.48 694.895 1428.29 694.707C1428.22 694.639 1428.17 694.562 1428.12 694.479C1428.04 694.323 1427.99 694.245 1428.07 694.122C1428.14 694 1428.26 694 1428.5 694L1429 694H1429.5Z" fill="#33363F"/>
<path id="Ellipse 88 (Stroke)_2" fill-rule="evenodd" clip-rule="evenodd" d="M1430.32 694.719C1430.25 694.844 1430.16 694.959 1430.06 695.061C1429.78 695.342 1429.4 695.5 1429 695.5C1428.6 695.5 1428.22 695.342 1427.94 695.061C1427.84 694.959 1427.75 694.844 1427.68 694.719C1427.68 694.715 1427.68 694.71 1427.68 694.704C1427.64 694.643 1427.58 694.525 1427.55 694.398C1427.5 694.204 1427.54 694.025 1427.64 693.867C1427.75 693.67 1427.93 693.568 1428.11 693.527C1428.24 693.499 1428.38 693.5 1428.48 693.5C1428.48 693.5 1428.49 693.5 1428.5 693.5L1429.5 693.5C1429.51 693.5 1429.52 693.5 1429.52 693.5C1429.62 693.5 1429.76 693.499 1429.89 693.527C1430.07 693.568 1430.25 693.67 1430.36 693.867C1430.46 694.025 1430.5 694.204 1430.45 694.398C1430.42 694.525 1430.36 694.643 1430.32 694.704C1430.32 694.71 1430.32 694.715 1430.32 694.719ZM1429.93 694.122C1429.86 694 1429.74 694 1429.5 694L1428.5 694C1428.26 694 1428.14 694 1428.07 694.122C1427.99 694.245 1428.04 694.323 1428.12 694.479C1428.17 694.562 1428.22 694.639 1428.29 694.707C1428.48 694.895 1428.73 695 1429 695C1429.27 695 1429.52 694.895 1429.71 694.707C1429.78 694.639 1429.83 694.562 1429.88 694.479C1429.96 694.323 1430.01 694.245 1429.93 694.122Z" fill="#33363F"/>
<path id="Ellipse 89_2" d="M1435.5 694C1435.74 694 1435.86 694 1435.93 694.122C1436.01 694.245 1435.96 694.323 1435.88 694.479C1435.83 694.562 1435.78 694.639 1435.71 694.707C1435.52 694.895 1435.27 695 1435 695C1434.73 695 1434.48 694.895 1434.29 694.707C1434.22 694.639 1434.17 694.562 1434.12 694.479C1434.04 694.323 1433.99 694.245 1434.07 694.122C1434.14 694 1434.26 694 1434.5 694L1435 694H1435.5Z" fill="#33363F"/>
<path id="Ellipse 89 (Stroke)_2" fill-rule="evenodd" clip-rule="evenodd" d="M1436.32 694.719C1436.25 694.844 1436.16 694.959 1436.06 695.061C1435.78 695.342 1435.4 695.5 1435 695.5C1434.6 695.5 1434.22 695.342 1433.94 695.061C1433.84 694.959 1433.75 694.844 1433.68 694.719C1433.68 694.715 1433.68 694.71 1433.68 694.704C1433.64 694.643 1433.58 694.525 1433.55 694.398C1433.5 694.204 1433.54 694.025 1433.64 693.867C1433.75 693.67 1433.93 693.568 1434.11 693.527C1434.24 693.499 1434.38 693.5 1434.48 693.5C1434.48 693.5 1434.49 693.5 1434.5 693.5L1435.5 693.5C1435.51 693.5 1435.52 693.5 1435.52 693.5C1435.62 693.5 1435.76 693.499 1435.89 693.527C1436.07 693.568 1436.25 693.67 1436.36 693.867C1436.46 694.025 1436.5 694.204 1436.45 694.398C1436.42 694.525 1436.36 694.643 1436.32 694.704C1436.32 694.71 1436.32 694.715 1436.32 694.719ZM1435.93 694.122C1435.86 694 1435.74 694 1435.5 694L1434.5 694C1434.26 694 1434.14 694 1434.07 694.122C1433.99 694.245 1434.04 694.323 1434.12 694.479C1434.17 694.562 1434.22 694.639 1434.29 694.707C1434.48 694.895 1434.73 695 1435 695C1435.27 695 1435.52 694.895 1435.71 694.707C1435.78 694.639 1435.83 694.562 1435.88 694.479C1435.96 694.323 1436.01 694.245 1435.93 694.122Z" fill="#33363F"/>
</g>
<path id="Vector_14" d="M1426.24 674.809H1473.55C1486.3 674.809 1495.67 665.141 1495.67 653.227C1495.67 640.824 1485.61 631.791 1472.53 631.791C1467.74 622.416 1458.71 616.41 1447.82 616.41C1433.27 616.41 1421.26 627.69 1419.99 641.898C1413.1 643.9 1407.93 650.053 1407.93 658.158C1407.93 667.387 1414.62 674.809 1426.24 674.809Z" fill="black"/>
</g>
<g id="Ultralight-S">
<g id="Sad_alt_2_3">
<path id="Ellipse 87 (Stroke)_3" fill-rule="evenodd" clip-rule="evenodd" d="M543 696C543 702.075 538.075 707 532 707C525.925 707 521 702.075 521 696C521 689.925 525.925 685 532 685C538.075 685 543 689.925 543 696ZM532 705C536.971 705 541 700.971 541 696C541 691.029 536.971 687 532 687C527.029 687 523 691.029 523 696C523 700.971 527.029 705 532 705Z" fill="#33363F"/>
<path id="Ellipse 90 (Stroke)_3" fill-rule="evenodd" clip-rule="evenodd" d="M527.347 700.484C527.464 701.024 527.996 701.367 528.536 701.25C528.887 701.174 529.392 701.111 530 701.067C530.608 701.023 531.298 701 532 701C532.702 701 533.392 701.023 534 701.067C534.608 701.111 535.113 701.174 535.464 701.25C536.004 701.367 536.536 701.024 536.653 700.484C536.77 699.944 536.427 699.412 535.887 699.295C535.403 699.19 534.791 699.119 534.144 699.072C533.481 699.024 532.743 699 532 699C531.257 699 530.519 699.024 529.856 699.072C529.209 699.119 528.597 699.19 528.113 699.295C527.573 699.412 527.23 699.944 527.347 700.484Z" fill="#33363F"/>
<path id="Ellipse 88_3" d="M529.5 694C529.74 694 529.86 694 529.933 694.122C530.006 694.245 529.963 694.323 529.878 694.479C529.832 694.562 529.775 694.639 529.707 694.707C529.52 694.895 529.265 695 529 695C528.735 695 528.48 694.895 528.293 694.707C528.225 694.639 528.168 694.562 528.122 694.479C528.037 694.323 527.994 694.245 528.067 694.122C528.14 694 528.26 694 528.5 694L529 694H529.5Z" fill="#33363F"/>
<path id="Ellipse 88 (Stroke)_3" fill-rule="evenodd" clip-rule="evenodd" d="M530.316 694.719C530.248 694.844 530.163 694.959 530.061 695.061C529.779 695.342 529.398 695.5 529 695.5C528.602 695.5 528.221 695.342 527.939 695.061C527.837 694.959 527.752 694.844 527.684 694.719C527.681 694.715 527.678 694.71 527.675 694.704C527.642 694.643 527.576 694.525 527.548 694.398C527.504 694.204 527.544 694.025 527.637 693.867C527.754 693.67 527.929 693.568 528.113 693.527C528.237 693.499 528.379 693.5 528.477 693.5C528.485 693.5 528.493 693.5 528.5 693.5L529.5 693.5C529.507 693.5 529.515 693.5 529.523 693.5C529.621 693.5 529.763 693.499 529.887 693.527C530.071 693.568 530.246 693.67 530.363 693.867C530.456 694.025 530.496 694.204 530.452 694.398C530.424 694.525 530.358 694.643 530.325 694.704C530.322 694.71 530.319 694.715 530.316 694.719ZM529.933 694.122C529.86 694 529.74 694 529.5 694L528.5 694C528.26 694 528.14 694 528.067 694.122C527.994 694.245 528.037 694.323 528.122 694.479C528.168 694.562 528.225 694.639 528.293 694.707C528.48 694.895 528.735 695 529 695C529.265 695 529.52 694.895 529.707 694.707C529.775 694.639 529.832 694.562 529.878 694.479C529.963 694.323 530.006 694.245 529.933 694.122Z" fill="#33363F"/>
<path id="Ellipse 89_3" d="M535.5 694C535.74 694 535.86 694 535.933 694.122C536.006 694.245 535.963 694.323 535.878 694.479C535.832 694.562 535.775 694.639 535.707 694.707C535.52 694.895 535.265 695 535 695C534.735 695 534.48 694.895 534.293 694.707C534.225 694.639 534.168 694.562 534.122 694.479C534.037 694.323 533.994 694.245 534.067 694.122C534.14 694 534.26 694 534.5 694L535 694H535.5Z" fill="#33363F"/>
<path id="Ellipse 89 (Stroke)_3" fill-rule="evenodd" clip-rule="evenodd" d="M536.316 694.719C536.248 694.844 536.163 694.959 536.061 695.061C535.779 695.342 535.398 695.5 535 695.5C534.602 695.5 534.221 695.342 533.939 695.061C533.837 694.959 533.752 694.844 533.684 694.719C533.681 694.715 533.678 694.71 533.675 694.704C533.642 694.643 533.576 694.525 533.548 694.398C533.504 694.204 533.544 694.025 533.637 693.867C533.754 693.67 533.929 693.568 534.113 693.527C534.237 693.499 534.379 693.5 534.477 693.5C534.485 693.5 534.493 693.5 534.5 693.5L535.5 693.5C535.507 693.5 535.515 693.5 535.523 693.5C535.621 693.5 535.763 693.499 535.887 693.527C536.071 693.568 536.246 693.67 536.363 693.867C536.456 694.025 536.496 694.204 536.452 694.398C536.424 694.525 536.358 694.643 536.325 694.704C536.322 694.71 536.319 694.715 536.316 694.719ZM535.933 694.122C535.86 694 535.74 694 535.5 694L534.5 694C534.26 694 534.14 694 534.067 694.122C533.994 694.245 534.037 694.323 534.122 694.479C534.168 694.562 534.225 694.639 534.293 694.707C534.48 694.895 534.735 695 535 695C535.265 695 535.52 694.895 535.707 694.707C535.775 694.639 535.832 694.562 535.878 694.479C535.963 694.323 536.006 694.245 535.933 694.122Z" fill="#33363F"/>
</g>
<path id="Vector_15" d="M535.422 675.217H583.644C595.344 675.217 604.446 666.412 604.446 655.315C604.446 644.048 594.933 635.696 582.619 635.696C577.834 625.822 569.663 619.407 557.912 619.407C544.224 619.407 532.984 630.687 531.805 644.896C524.648 646.761 518.882 652.323 518.882 660.293C518.882 668.477 524.981 675.217 535.422 675.217Z" fill="black"/>
</g>
</g>
</g>
<defs>
<clipPath id="clip0_1_2">
<rect width="3300" height="2200" fill="white"/>
</clipPath>
</defs>
</svg>
